<svg version="1.0" width="1904" height="1517.3" viewBox="0 0 1428 1138" xmlns="http://www.w3.org/2000/svg"><path d="M13450 11099a673 673 0 0 1-364-194 670 670 0 0 1-165-253l-26-67-3-3774c-2-4178-8-3820 62-3966a680 680 0 0 1 837-339 708 708 0 0 1 425 416c8 23 23 128 32 233 16 175 17 466 17 3615 0 3539-2 3698-40 3845-81 311-438 534-775 484zM593 8630a692 692 0 0 1-483-364c-75-154-71-49-67-1851 3-1463 5-1621 20-1725 89-592 337-1078 758-1485a2484 2484 0 0 1 1671-734c450-21 844 59 1235 250 523 256 969 694 1230 1209 161 318 237 644 251 1080 4 118 5 863 2 1655l-5 1440-26 67a714 714 0 0 1-575 459c-76 10-101 9-169-4a688 688 0 0 1-493-427l-27-75-6-1590c-4-1411-7-1601-21-1685-94-542-521-967-1058-1055-121-19-342-19-453 0-264 46-499 173-687 372a1260 1260 0 0 0-326 678c-11 74-14 352-14 1585 0 827-5 1541-10 1597a635 635 0 0 1-217 442 664 664 0 0 1-530 161zM6721 8629c-75-13-179-59-255-113a659 659 0 0 1-243-331l-28-80V4415c0-3487 1-3694 18-3755a685 685 0 0 1 439-476c76-27 94-29 223-29 126 1 147 3 207 27 107 40 176 87 265 175 63 63 90 100 122 165 81 162 75 59 78 1321 2 620 5 1127 7 1127s48-28 102-62c350-220 766-362 1204-412 256-30 633-17 880 29 488 92 891 277 1270 582 452 364 776 792 965 1275 337 865 267 1922-182 2702a3100 3100 0 0 1-458 614c-24 29-213 206-290 272-67 57-201 154-316 230a2484 2484 0 0 1-784 341c-306 78-592 106-899 88-503-29-985-173-1409-423-91-54-117-61-117-33a672 672 0 0 1-429 421 772 772 0 0 1-370 35zm2711-1354c361-54 626-190 885-452a1862 1862 0 0 0 483-1678c-82-382-328-774-645-1026a1572 1572 0 0 0-1650-179c-169 83-328 173-501 346a1637 1637 0 0 0-414 831 1966 1966 0 0 0 327 1532c79 106 271 295 373 366 206 144 466 242 710 268 96 10 339 6 432-8z" style="fill:#b70101;fill-opacity:1" transform="matrix(.1 0 0 -.1 0 1138)"/></svg>
