<svg xmlns="http://www.w3.org/2000/svg" viewBox="0 0 320 255"><defs><style>.cls-1{fill:#fefdfd;}.cls-2{fill:#b70303;}.cls-3{fill:#d26363;}</style></defs><g id="Layer_2" data-name="Layer 2"><g id="Layer_1-2" data-name="Layer 1"><path class="cls-1" d="M319.92,189c0,21-.05,42,.07,63,0,2.5-.57,3.06-3.07,3.06Q160,254.9,3.06,255C.56,255,0,254.44,0,251.94Q.12,127.5,0,3.06C0,.56.56,0,3.06,0Q160,.11,316.92,0c2.5,0,3.17.55,3.07,3.06-.22,5.33-.07,10.66-.07,16a.83.83,0,0,0-.84-.17A15.22,15.22,0,0,0,303.14,6.21,15.07,15.07,0,0,0,289,20.91c-.16,7.49,0,15,0,22.48q0,70.43,0,140.86c0,7.57,4.3,13.22,11.25,15.22,6.33,1.82,13.32-1.08,17.28-7C318.25,191.29,318.23,189.51,319.92,189Zm-150.74-.32c2.34,1.31,3.77,2.12,5.2,2.91a63.61,63.61,0,0,0,45.88,6.62c31.65-6.94,53-34.31,52.95-67.27,0-30-18.49-56.84-46-65.89-19-6.25-37.39-4.08-54.89,5.64-1.53.84-2.83,2.75-4.6-.49-3.93-7.21-11.31-10.09-18.58-8C142.74,64,138.92,69.84,138.91,78q0,32.22,0,64.43c0,30.8,0,61.61-.06,92.41,0,4.93,1.08,9.29,4.64,12.69,4.44,4.25,9.71,5.62,15.62,3.41a14.78,14.78,0,0,0,10.05-14.08C169.25,221.12,169.18,205.34,169.18,188.65ZM117,113.8c0-13.92.12-25.41,0-36.9a15.17,15.17,0,0,0-15.74-15.19c-8,.32-13.53,6.64-13.57,16-.08,20.82.11,41.63-.06,62.44C87.41,161.79,69,175.38,48.93,169c-11.27-3.6-18.65-14.6-18.71-28.36-.1-20.65,0-41.29,0-61.94,0-2.48.12-5-.83-7.38A14.66,14.66,0,0,0,13,61.88a14.49,14.49,0,0,0-12,14.49C1,98.18,1.08,120,1,141.8c-.07,17.94,6.78,32.79,20.35,44.26C38.4,200.47,58,204.11,78.76,196.18c20.46-7.82,33.7-22.73,37.33-44.92C118.25,138,116.42,124.66,117,113.8Z"/><path class="cls-2" d="M320,189c-1.69.54-1.67,2.32-2.46,3.5-4,5.92-11,8.82-17.28,7-7-2-11.25-7.65-11.25-15.22q-.06-70.42,0-140.86c0-7.49-.11-15,.05-22.48a15.07,15.07,0,0,1,14.17-14.7,15.23,15.23,0,0,1,16,12.67,6.74,6.74,0,0,0-.14,1q0,81.76,0,163.53c0,1.23-.57,2.72,1,3.57Z"/><path class="cls-3" d="M320,187c-1.54-.85-1-2.34-1-3.57q0-81.77,0-163.53a6.74,6.74,0,0,1,.14-1,.83.83,0,0,1,.84.17Z"/><path class="cls-2" d="M169.18,188.65c0,16.69.07,32.47,0,48.25A14.78,14.78,0,0,1,159.1,251c-5.91,2.21-11.18.84-15.62-3.41-3.56-3.4-4.65-7.76-4.64-12.69.11-30.8.06-61.61.06-92.41q0-32.22,0-64.43c0-8.2,3.83-14,10.26-15.88,7.27-2.08,14.65.8,18.58,8,1.77,3.24,3.07,1.33,4.6.49,17.5-9.72,35.92-11.89,54.89-5.64,27.48,9,45.92,35.88,46,65.89.05,33-21.3,60.33-52.95,67.27a63.61,63.61,0,0,1-45.88-6.62C173,190.77,171.52,190,169.18,188.65Zm73.89-56.83a41.63,41.63,0,0,0-1.13-10.37C235.49,94,204.79,82.5,183.6,99.86c-9.1,7.45-13.12,17.49-14.14,29.17-1.44,16.46,8.73,33.34,24.25,39.11C217.48,177,242.68,158.43,243.07,131.82Z"/><path class="cls-2" d="M117,113.8c-.59,10.86,1.24,24.24-.92,37.46-3.63,22.19-16.87,37.1-37.33,44.92C58,204.11,38.4,200.47,21.34,186.06,7.77,174.59.92,159.74,1,141.8c.09-21.81,0-43.62.07-65.43A14.49,14.49,0,0,1,13,61.88,14.66,14.66,0,0,1,29.35,71.3c.95,2.42.82,4.9.83,7.38,0,20.65-.06,41.29,0,61.94.06,13.76,7.44,24.76,18.71,28.36,20.09,6.4,38.48-7.19,38.67-28.81.17-20.81,0-41.62.06-62.44,0-9.38,5.52-15.7,13.57-16A15.17,15.17,0,0,1,117,76.9C117.13,88.39,117,99.88,117,113.8Z"/><path class="cls-1" d="M243.07,131.82c-.39,26.61-25.59,45.15-49.36,36.32C178.19,162.37,168,145.49,169.46,129c1-11.68,5-21.72,14.14-29.17,21.19-17.36,51.89-5.91,58.34,21.59A41.63,41.63,0,0,1,243.07,131.82Z"/></g></g></svg>